<svg xmlns="http://www.w3.org/2000/svg" viewBox="0 0 20 21.01"><defs><style>.cls-1{fill:#fffcf2;}</style></defs><title>cloud2</title><g id="Capa_2" data-name="Capa 2"><g id="Capa_1-2" data-name="Capa 1"><path class="cls-1" d="M19,17H12.82A3,3,0,0,0,11,15.21V12h3.17a4.33,4.33,0,0,0,1.3-8.5A6,6,0,0,0,4.06,5.16,3.5,3.5,0,0,0,5,12H9v3.18A3,3,0,0,0,7.18,17H1a1,1,0,0,0,0,2H7.18a3,3,0,0,0,5.64,0H19a1,1,0,0,0,0-2ZM5,10A1.5,1.5,0,0,1,5,7,1,1,0,0,0,6,6a4,4,0,0,1,7.79-1.29,1,1,0,0,0,.78.67A2.31,2.31,0,0,1,16.5,7.7,2.34,2.34,0,0,1,14.17,10Zm5,9a1,1,0,1,1,1-1A1,1,0,0,1,10,19Z"/></g></g></svg>