<svg xmlns="http://www.w3.org/2000/svg" viewBox="0 0 28 27"><defs><style>.cls-1{fill:none;stroke:#fffcf2;stroke-linecap:round;stroke-linejoin:round;stroke-width:2px;}</style></defs><title>computer</title><g id="Capa_2" data-name="Capa 2"><g id="Icons"><path class="cls-1" d="M1,3V18a2,2,0,0,0,2,2H25a2,2,0,0,0,2-2V3a2,2,0,0,0-2-2H3A2,2,0,0,0,1,3Z"/><line class="cls-1" x1="1" y1="16" x2="27" y2="16"/><line class="cls-1" x1="7" y1="26" x2="21" y2="26"/><path class="cls-1" d="M11,20a10.64,10.64,0,0,1-1.8,6"/><path class="cls-1" d="M18.8,26A10.64,10.64,0,0,1,17,20"/></g></g></svg>