<svg xmlns="http://www.w3.org/2000/svg" viewBox="0 0 391 513"><defs><style>.cls-1{fill:none;}.cls-1,.cls-2{stroke:#fffcf2;stroke-miterlimit:10;}.cls-2{fill:#fffcf2;}</style></defs><title>server2</title><g id="Capa_2" data-name="Capa 2"><g id="Layer_1" data-name="Layer 1"><path class="cls-1" d="M350.5,158.5V50.5a10,10,0,0,0-10-10H50.5a10,10,0,0,0-10,10v108Zm-137-75h76a20,20,0,0,1,0,40h-76a20,20,0,0,1,0-40ZM95.2,80.6a23.2,23.2,0,1,1-23.3,23.2A23.24,23.24,0,0,1,95.2,80.6Z"/><path class="cls-1" d="M350.5,304.5v-106H40.5v106Zm-137-69h76a20,20,0,0,1,0,40h-76a20,20,0,0,1,0-40ZM95.2,233a23.2,23.2,0,1,1-23.3,23.2A23.24,23.24,0,0,1,95.2,233Z"/><path class="cls-1" d="M40.5,344.5v118a10,10,0,0,0,10,10h290a10,10,0,0,0,10-10v-118Zm54.7,87.3a23.2,23.2,0,1,1,23.3-23.2A23.24,23.24,0,0,1,95.2,431.8Zm194.3-3.3h-76a20,20,0,0,1,0-40h76a20,20,0,0,1,0,40Z"/><path class="cls-2" d="M340.5.5H50.5a50,50,0,0,0-50,50v412a50,50,0,0,0,50,50h290a50,50,0,0,0,50-50V50.5a50.08,50.08,0,0,0-50-50Zm-290,40h290a10,10,0,0,1,10,10v108H40.5V50.5A10,10,0,0,1,50.5,40.5Zm300,158v106H40.5v-106Zm-10,274H50.5a10,10,0,0,1-10-10v-118h310v118A10,10,0,0,1,340.5,472.5Z"/><ellipse class="cls-2" cx="95.2" cy="103.8" rx="23.3" ry="23.2"/><ellipse class="cls-2" cx="95.2" cy="256.2" rx="23.3" ry="23.2"/><ellipse class="cls-2" cx="95.2" cy="408.6" rx="23.3" ry="23.2"/><path class="cls-2" d="M213.5,123.5h76a20,20,0,0,0,0-40h-76a20,20,0,0,0,0,40Z"/><path class="cls-2" d="M213.5,275.5h76a20,20,0,0,0,0-40h-76a20,20,0,0,0,0,40Z"/><path class="cls-2" d="M289.5,388.5h-76a20,20,0,0,0,0,40h76a20,20,0,0,0,0-40Z"/></g></g></svg>